<?xml version="1.0" encoding="UTF-8" standalone="no"?>
<!DOCTYPE svg PUBLIC "-//W3C//DTD SVG 1.1//EN" "http://www.w3.org/Graphics/SVG/1.1/DTD/svg11.dtd">
<!-- Generated by graphviz version 2.40.1 (20161225.0304)
 -->
<!-- Title: G Pages: 1 -->
<svg width="728pt" height="260pt" viewBox="0.00 0.00 728.00 260.00" xmlns="http://www.w3.org/2000/svg" xmlns:xlink="http://www.w3.org/1999/xlink">
<g id="graph0" class="graph" transform="scale(1 1) rotate(0) translate(4 256)">
<title>G</title>
<polygon fill="transparent" stroke="transparent" points="-4,4 -4,-256 724,-256 724,4 -4,4"/>
<!-- AST1 -->
<g id="node1" class="node">
<title>AST1</title>
<path fill="#d3d3d3" stroke="#000000" d="M78,-252C78,-252 48,-252 48,-252 42,-252 36,-246 36,-240 36,-240 36,-228 36,-228 36,-222 42,-216 48,-216 48,-216 78,-216 78,-216 84,-216 90,-222 90,-228 90,-228 90,-240 90,-240 90,-246 84,-252 78,-252"/>
<text text-anchor="middle" x="63" y="-229.8" font-family="Times,serif" font-size="14.00" fill="#000000">AST1</text>
</g>
<!-- AST2 -->
<g id="node2" class="node">
<title>AST2</title>
<path fill="#d3d3d3" stroke="#000000" d="M276,-252C276,-252 246,-252 246,-252 240,-252 234,-246 234,-240 234,-240 234,-228 234,-228 234,-222 240,-216 246,-216 246,-216 276,-216 276,-216 282,-216 288,-222 288,-228 288,-228 288,-240 288,-240 288,-246 282,-252 276,-252"/>
<text text-anchor="middle" x="261" y="-229.8" font-family="Times,serif" font-size="14.00" fill="#000000">AST2</text>
</g>
<!-- AST1&#45;&gt;AST2 -->
<g id="edge1" class="edge">
<title>AST1-&gt;AST2</title>
<path fill="none" stroke="#000000" d="M90.0703,-234C134.6606,-234 179.2509,-234 223.8413,-234"/>
<polygon fill="#000000" stroke="#000000" points="223.9584,-237.5001 233.9584,-234 223.9584,-230.5001 223.9584,-237.5001"/>
</g>
<!-- e1 -->
<g id="node5" class="node">
<title>e1</title>
<path fill="#d3d3d3" stroke="#000000" d="M78,-180C78,-180 48,-180 48,-180 42,-180 36,-174 36,-168 36,-168 36,-156 36,-156 36,-150 42,-144 48,-144 48,-144 78,-144 78,-144 84,-144 90,-150 90,-156 90,-156 90,-168 90,-168 90,-174 84,-180 78,-180"/>
<text text-anchor="middle" x="63" y="-157.8" font-family="Times,serif" font-size="14.00" fill="#000000">=</text>
</g>
<!-- AST1&#45;&gt;e1 -->
<g id="edge4" class="edge">
<title>AST1-&gt;e1</title>
<path fill="none" stroke="#000000" d="M63,-215.8314C63,-208.131 63,-198.9743 63,-190.4166"/>
<polygon fill="#000000" stroke="#000000" points="66.5001,-190.4132 63,-180.4133 59.5001,-190.4133 66.5001,-190.4132"/>
</g>
<!-- AST3 -->
<g id="node3" class="node">
<title>AST3</title>
<path fill="#d3d3d3" stroke="#000000" d="M474,-252C474,-252 444,-252 444,-252 438,-252 432,-246 432,-240 432,-240 432,-228 432,-228 432,-222 438,-216 444,-216 444,-216 474,-216 474,-216 480,-216 486,-222 486,-228 486,-228 486,-240 486,-240 486,-246 480,-252 474,-252"/>
<text text-anchor="middle" x="459" y="-229.8" font-family="Times,serif" font-size="14.00" fill="#000000">AST3</text>
</g>
<!-- AST2&#45;&gt;AST3 -->
<g id="edge2" class="edge">
<title>AST2-&gt;AST3</title>
<path fill="none" stroke="#000000" d="M288.0703,-234C332.6606,-234 377.2509,-234 421.8413,-234"/>
<polygon fill="#000000" stroke="#000000" points="421.9584,-237.5001 431.9584,-234 421.9584,-230.5001 421.9584,-237.5001"/>
</g>
<!-- e2 -->
<g id="node6" class="node">
<title>e2</title>
<path fill="#d3d3d3" stroke="#000000" d="M276,-180C276,-180 246,-180 246,-180 240,-180 234,-174 234,-168 234,-168 234,-156 234,-156 234,-150 240,-144 246,-144 246,-144 276,-144 276,-144 282,-144 288,-150 288,-156 288,-156 288,-168 288,-168 288,-174 282,-180 276,-180"/>
<text text-anchor="middle" x="261" y="-157.8" font-family="Times,serif" font-size="14.00" fill="#000000">=</text>
</g>
<!-- AST2&#45;&gt;e2 -->
<g id="edge5" class="edge">
<title>AST2-&gt;e2</title>
<path fill="none" stroke="#000000" d="M261,-215.8314C261,-208.131 261,-198.9743 261,-190.4166"/>
<polygon fill="#000000" stroke="#000000" points="264.5001,-190.4132 261,-180.4133 257.5001,-190.4133 264.5001,-190.4132"/>
</g>
<!-- AST4 -->
<g id="node4" class="node">
<title>AST4</title>
<path fill="#d3d3d3" stroke="#000000" d="M672,-252C672,-252 642,-252 642,-252 636,-252 630,-246 630,-240 630,-240 630,-228 630,-228 630,-222 636,-216 642,-216 642,-216 672,-216 672,-216 678,-216 684,-222 684,-228 684,-228 684,-240 684,-240 684,-246 678,-252 672,-252"/>
<text text-anchor="middle" x="657" y="-229.8" font-family="Times,serif" font-size="14.00" fill="#000000">AST4</text>
</g>
<!-- AST3&#45;&gt;AST4 -->
<g id="edge3" class="edge">
<title>AST3-&gt;AST4</title>
<path fill="none" stroke="#000000" d="M486.0703,-234C530.6606,-234 575.2509,-234 619.8413,-234"/>
<polygon fill="#000000" stroke="#000000" points="619.9584,-237.5001 629.9584,-234 619.9584,-230.5001 619.9584,-237.5001"/>
</g>
<!-- e3 -->
<g id="node7" class="node">
<title>e3</title>
<path fill="#d3d3d3" stroke="#000000" d="M474,-180C474,-180 444,-180 444,-180 438,-180 432,-174 432,-168 432,-168 432,-156 432,-156 432,-150 438,-144 444,-144 444,-144 474,-144 474,-144 480,-144 486,-150 486,-156 486,-156 486,-168 486,-168 486,-174 480,-180 474,-180"/>
<text text-anchor="middle" x="459" y="-157.8" font-family="Times,serif" font-size="14.00" fill="#000000">=</text>
</g>
<!-- AST3&#45;&gt;e3 -->
<g id="edge6" class="edge">
<title>AST3-&gt;e3</title>
<path fill="none" stroke="#000000" d="M459,-215.8314C459,-208.131 459,-198.9743 459,-190.4166"/>
<polygon fill="#000000" stroke="#000000" points="462.5001,-190.4132 459,-180.4133 455.5001,-190.4133 462.5001,-190.4132"/>
</g>
<!-- e4 -->
<g id="node8" class="node">
<title>e4</title>
<path fill="#d3d3d3" stroke="#000000" d="M672,-180C672,-180 642,-180 642,-180 636,-180 630,-174 630,-168 630,-168 630,-156 630,-156 630,-150 636,-144 642,-144 642,-144 672,-144 672,-144 678,-144 684,-150 684,-156 684,-156 684,-168 684,-168 684,-174 678,-180 672,-180"/>
<text text-anchor="middle" x="657" y="-157.8" font-family="Times,serif" font-size="14.00" fill="#000000">=</text>
</g>
<!-- AST4&#45;&gt;e4 -->
<g id="edge7" class="edge">
<title>AST4-&gt;e4</title>
<path fill="none" stroke="#000000" d="M657,-215.8314C657,-208.131 657,-198.9743 657,-190.4166"/>
<polygon fill="#000000" stroke="#000000" points="660.5001,-190.4132 657,-180.4133 653.5001,-190.4133 660.5001,-190.4132"/>
</g>
<!-- sp1 -->
<g id="node9" class="node">
<title>sp1</title>
<path fill="#d3d3d3" stroke="#000000" d="M42,-108C42,-108 12,-108 12,-108 6,-108 0,-102 0,-96 0,-96 0,-84 0,-84 0,-78 6,-72 12,-72 12,-72 42,-72 42,-72 48,-72 54,-78 54,-84 54,-84 54,-96 54,-96 54,-102 48,-108 42,-108"/>
<text text-anchor="middle" x="27" y="-85.8" font-family="Times,serif" font-size="14.00" fill="#000000">SP</text>
</g>
<!-- e1&#45;&gt;sp1 -->
<g id="edge8" class="edge">
<title>e1-&gt;sp1</title>
<path fill="none" stroke="#000000" d="M53.9157,-143.8314C49.9385,-135.8771 45.1845,-126.369 40.7861,-117.5723"/>
<polygon fill="#000000" stroke="#000000" points="43.8093,-115.7923 36.2066,-108.4133 37.5483,-118.9228 43.8093,-115.7923"/>
</g>
<!-- bp1 -->
<g id="node10" class="node">
<title>bp1</title>
<path fill="#d3d3d3" stroke="#000000" d="M114,-108C114,-108 84,-108 84,-108 78,-108 72,-102 72,-96 72,-96 72,-84 72,-84 72,-78 78,-72 84,-72 84,-72 114,-72 114,-72 120,-72 126,-78 126,-84 126,-84 126,-96 126,-96 126,-102 120,-108 114,-108"/>
<text text-anchor="middle" x="99" y="-85.8" font-family="Times,serif" font-size="14.00" fill="#000000">BP</text>
</g>
<!-- e1&#45;&gt;bp1 -->
<g id="edge9" class="edge">
<title>e1-&gt;bp1</title>
<path fill="none" stroke="#000000" d="M72.0843,-143.8314C76.0615,-135.8771 80.8155,-126.369 85.2139,-117.5723"/>
<polygon fill="#000000" stroke="#000000" points="88.4517,-118.9228 89.7934,-108.4133 82.1907,-115.7923 88.4517,-118.9228"/>
</g>
<!-- bp2 -->
<g id="node12" class="node">
<title>bp2</title>
<path fill="#d3d3d3" stroke="#000000" d="M240,-108C240,-108 210,-108 210,-108 204,-108 198,-102 198,-96 198,-96 198,-84 198,-84 198,-78 204,-72 210,-72 210,-72 240,-72 240,-72 246,-72 252,-78 252,-84 252,-84 252,-96 252,-96 252,-102 246,-108 240,-108"/>
<text text-anchor="middle" x="225" y="-85.8" font-family="Times,serif" font-size="14.00" fill="#000000">BP</text>
</g>
<!-- e2&#45;&gt;bp2 -->
<g id="edge10" class="edge">
<title>e2-&gt;bp2</title>
<path fill="none" stroke="#000000" d="M251.9157,-143.8314C247.9385,-135.8771 243.1845,-126.369 238.7861,-117.5723"/>
<polygon fill="#000000" stroke="#000000" points="241.8093,-115.7923 234.2066,-108.4133 235.5483,-118.9228 241.8093,-115.7923"/>
</g>
<!-- mem2 -->
<g id="node13" class="node">
<title>mem2</title>
<path fill="#d3d3d3" stroke="#000000" d="M312,-108C312,-108 282,-108 282,-108 276,-108 270,-102 270,-96 270,-96 270,-84 270,-84 270,-78 276,-72 282,-72 282,-72 312,-72 312,-72 318,-72 324,-78 324,-84 324,-84 324,-96 324,-96 324,-102 318,-108 312,-108"/>
<text text-anchor="middle" x="297" y="-85.8" font-family="Times,serif" font-size="14.00" fill="#000000">mem</text>
</g>
<!-- e2&#45;&gt;mem2 -->
<g id="edge11" class="edge">
<title>e2-&gt;mem2</title>
<path fill="none" stroke="#000000" d="M270.0843,-143.8314C274.0615,-135.8771 278.8155,-126.369 283.2139,-117.5723"/>
<polygon fill="#000000" stroke="#000000" points="286.4517,-118.9228 287.7934,-108.4133 280.1907,-115.7923 286.4517,-118.9228"/>
</g>
<!-- sp3 -->
<g id="node14" class="node">
<title>sp3</title>
<path fill="#d3d3d3" stroke="#000000" d="M447,-108C447,-108 417,-108 417,-108 411,-108 405,-102 405,-96 405,-96 405,-84 405,-84 405,-78 411,-72 417,-72 417,-72 447,-72 447,-72 453,-72 459,-78 459,-84 459,-84 459,-96 459,-96 459,-102 453,-108 447,-108"/>
<text text-anchor="middle" x="432" y="-85.8" font-family="Times,serif" font-size="14.00" fill="#000000">SP</text>
</g>
<!-- e3&#45;&gt;sp3 -->
<g id="edge13" class="edge">
<title>e3-&gt;sp3</title>
<path fill="none" stroke="#000000" d="M452.1868,-143.8314C449.2356,-135.9617 445.7142,-126.5712 442.445,-117.8533"/>
<polygon fill="#000000" stroke="#000000" points="445.6934,-116.5476 438.905,-108.4133 439.1391,-119.0055 445.6934,-116.5476"/>
</g>
<!-- plus3 -->
<g id="node16" class="node">
<title>plus3</title>
<path fill="#d3d3d3" stroke="#000000" d="M519,-108C519,-108 489,-108 489,-108 483,-108 477,-102 477,-96 477,-96 477,-84 477,-84 477,-78 483,-72 489,-72 489,-72 519,-72 519,-72 525,-72 531,-78 531,-84 531,-84 531,-96 531,-96 531,-102 525,-108 519,-108"/>
<text text-anchor="middle" x="504" y="-85.8" font-family="Times,serif" font-size="14.00" fill="#000000">+</text>
</g>
<!-- e3&#45;&gt;plus3 -->
<g id="edge14" class="edge">
<title>e3-&gt;plus3</title>
<path fill="none" stroke="#000000" d="M470.3554,-143.8314C475.4326,-135.7079 481.5227,-125.9637 487.1176,-117.0118"/>
<polygon fill="#000000" stroke="#000000" points="490.1597,-118.7483 492.4917,-108.4133 484.2237,-115.0383 490.1597,-118.7483"/>
</g>
<!-- pc4 -->
<g id="node18" class="node">
<title>pc4</title>
<path fill="#d3d3d3" stroke="#000000" d="M636,-108C636,-108 606,-108 606,-108 600,-108 594,-102 594,-96 594,-96 594,-84 594,-84 594,-78 600,-72 606,-72 606,-72 636,-72 636,-72 642,-72 648,-78 648,-84 648,-84 648,-96 648,-96 648,-102 642,-108 636,-108"/>
<text text-anchor="middle" x="621" y="-85.8" font-family="Times,serif" font-size="14.00" fill="#000000">PC</text>
</g>
<!-- e4&#45;&gt;pc4 -->
<g id="edge17" class="edge">
<title>e4-&gt;pc4</title>
<path fill="none" stroke="#000000" d="M647.9157,-143.8314C643.9385,-135.8771 639.1845,-126.369 634.7861,-117.5723"/>
<polygon fill="#000000" stroke="#000000" points="637.8093,-115.7923 630.2066,-108.4133 631.5483,-118.9228 637.8093,-115.7923"/>
</g>
<!-- mem4 -->
<g id="node20" class="node">
<title>mem4</title>
<path fill="#d3d3d3" stroke="#000000" d="M708,-108C708,-108 678,-108 678,-108 672,-108 666,-102 666,-96 666,-96 666,-84 666,-84 666,-78 672,-72 678,-72 678,-72 708,-72 708,-72 714,-72 720,-78 720,-84 720,-84 720,-96 720,-96 720,-102 714,-108 708,-108"/>
<text text-anchor="middle" x="693" y="-85.8" font-family="Times,serif" font-size="14.00" fill="#000000">mem</text>
</g>
<!-- e4&#45;&gt;mem4 -->
<g id="edge18" class="edge">
<title>e4-&gt;mem4</title>
<path fill="none" stroke="#000000" d="M666.0843,-143.8314C670.0615,-135.8771 674.8155,-126.369 679.2139,-117.5723"/>
<polygon fill="#000000" stroke="#000000" points="682.4517,-118.9228 683.7934,-108.4133 676.1907,-115.7923 682.4517,-118.9228"/>
</g>
<!-- sp2 -->
<g id="node11" class="node">
<title>sp2</title>
<path fill="#d3d3d3" stroke="#000000" d="M312,-36C312,-36 282,-36 282,-36 276,-36 270,-30 270,-24 270,-24 270,-12 270,-12 270,-6 276,0 282,0 282,0 312,0 312,0 318,0 324,-6 324,-12 324,-12 324,-24 324,-24 324,-30 318,-36 312,-36"/>
<text text-anchor="middle" x="297" y="-13.8" font-family="Times,serif" font-size="14.00" fill="#000000">SP</text>
</g>
<!-- mem2&#45;&gt;sp2 -->
<g id="edge12" class="edge">
<title>mem2-&gt;sp2</title>
<path fill="none" stroke="#000000" d="M297,-71.8314C297,-64.131 297,-54.9743 297,-46.4166"/>
<polygon fill="#000000" stroke="#000000" points="300.5001,-46.4132 297,-36.4133 293.5001,-46.4133 300.5001,-46.4132"/>
</g>
<!-- sp32 -->
<g id="node15" class="node">
<title>sp32</title>
<path fill="#d3d3d3" stroke="#000000" d="M483,-36C483,-36 453,-36 453,-36 447,-36 441,-30 441,-24 441,-24 441,-12 441,-12 441,-6 447,0 453,0 453,0 483,0 483,0 489,0 495,-6 495,-12 495,-12 495,-24 495,-24 495,-30 489,-36 483,-36"/>
<text text-anchor="middle" x="468" y="-13.8" font-family="Times,serif" font-size="14.00" fill="#000000">SP</text>
</g>
<!-- plus3&#45;&gt;sp32 -->
<g id="edge15" class="edge">
<title>plus3-&gt;sp32</title>
<path fill="none" stroke="#000000" d="M494.9157,-71.8314C490.9385,-63.8771 486.1845,-54.369 481.7861,-45.5723"/>
<polygon fill="#000000" stroke="#000000" points="484.8093,-43.7923 477.2066,-36.4133 478.5483,-46.9228 484.8093,-43.7923"/>
</g>
<!-- numeral3 -->
<g id="node17" class="node">
<title>numeral3</title>
<path fill="#d3d3d3" stroke="#000000" d="M555,-36C555,-36 525,-36 525,-36 519,-36 513,-30 513,-24 513,-24 513,-12 513,-12 513,-6 519,0 525,0 525,0 555,0 555,0 561,0 567,-6 567,-12 567,-12 567,-24 567,-24 567,-30 561,-36 555,-36"/>
<text text-anchor="middle" x="540" y="-13.8" font-family="Times,serif" font-size="14.00" fill="#000000">2</text>
</g>
<!-- plus3&#45;&gt;numeral3 -->
<g id="edge16" class="edge">
<title>plus3-&gt;numeral3</title>
<path fill="none" stroke="#000000" d="M513.0843,-71.8314C517.0615,-63.8771 521.8155,-54.369 526.2139,-45.5723"/>
<polygon fill="#000000" stroke="#000000" points="529.4517,-46.9228 530.7934,-36.4133 523.1907,-43.7923 529.4517,-46.9228"/>
</g>
<!-- sp4 -->
<g id="node19" class="node">
<title>sp4</title>
<path fill="#d3d3d3" stroke="#000000" d="M708,-36C708,-36 678,-36 678,-36 672,-36 666,-30 666,-24 666,-24 666,-12 666,-12 666,-6 672,0 678,0 678,0 708,0 708,0 714,0 720,-6 720,-12 720,-12 720,-24 720,-24 720,-30 714,-36 708,-36"/>
<text text-anchor="middle" x="693" y="-13.8" font-family="Times,serif" font-size="14.00" fill="#000000">SP</text>
</g>
<!-- mem4&#45;&gt;sp4 -->
<g id="edge19" class="edge">
<title>mem4-&gt;sp4</title>
<path fill="none" stroke="#000000" d="M693,-71.8314C693,-64.131 693,-54.9743 693,-46.4166"/>
<polygon fill="#000000" stroke="#000000" points="696.5001,-46.4132 693,-36.4133 689.5001,-46.4133 696.5001,-46.4132"/>
</g>
</g>
</svg>